<svg width="18" height="18" viewBox="0 0 18 18" fill="none" xmlns="http://www.w3.org/2000/svg">
<path d="M14.0258 12.8475L17.595 16.4159L16.4158 17.595L12.8475 14.0259C11.5197 15.0902 9.86829 15.6691 8.16663 15.6667C4.02663 15.6667 0.666626 12.3067 0.666626 8.16669C0.666626 4.02669 4.02663 0.666687 8.16663 0.666687C12.3066 0.666687 15.6666 4.02669 15.6666 8.16669C15.669 9.86835 15.0901 11.5198 14.0258 12.8475ZM12.3541 12.2292C13.4117 11.1416 14.0023 9.68371 14 8.16669C14 4.94335 11.3891 2.33335 8.16663 2.33335C4.94329 2.33335 2.33329 4.94335 2.33329 8.16669C2.33329 11.3892 4.94329 14 8.16663 14C9.68365 14.0024 11.1415 13.4118 12.2291 12.3542L12.3541 12.2292Z" fill="black"/>
</svg>
