<svg width="22" height="18" viewBox="0 0 22 18" fill="none" xmlns="http://www.w3.org/2000/svg">
<path d="M21.1621 2.65599C20.3986 2.99368 19.589 3.21546 18.7601 3.31399C19.6338 2.79142 20.2878 1.969 20.6001 0.999988C19.7801 1.48799 18.8811 1.82999 17.9441 2.01499C17.3147 1.34157 16.4804 0.894951 15.571 0.744572C14.6616 0.594194 13.728 0.748479 12.9153 1.18344C12.1026 1.6184 11.4564 2.30967 11.0772 3.14978C10.6979 3.98989 10.6068 4.93177 10.8181 5.82899C9.15516 5.74564 7.52838 5.31351 6.04334 4.56065C4.55829 3.80779 3.24818 2.75104 2.19805 1.45899C1.82634 2.09744 1.63101 2.82321 1.63205 3.56199C1.63205 5.01199 2.37005 6.29299 3.49205 7.04299C2.82806 7.02208 2.17869 6.84277 1.59805 6.51999V6.57199C1.59825 7.53769 1.93242 8.4736 2.5439 9.22105C3.15538 9.96849 4.00653 10.4815 4.95305 10.673C4.33667 10.84 3.69036 10.8646 3.06305 10.745C3.32992 11.5762 3.85006 12.3032 4.55064 12.8241C5.25123 13.345 6.09718 13.6338 6.97005 13.65C6.10253 14.3313 5.10923 14.835 4.04693 15.1322C2.98464 15.4293 1.87418 15.5142 0.779053 15.382C2.69075 16.6114 4.91615 17.2641 7.18905 17.262C14.8821 17.262 19.0891 10.889 19.0891 5.36199C19.0891 5.18199 19.0841 4.99999 19.0761 4.82199C19.8949 4.23016 20.6017 3.49701 21.1631 2.65699L21.1621 2.65599Z" fill="#454444"/>
</svg>
